<?xml version="1.0" encoding="iso-8859-1"?>
<!-- Generator: Adobe Illustrator 19.0.0, SVG Export Plug-In . SVG Version: 6.00 Build 0)  -->
<svg version="1.1" id="Capa_1" xmlns="http://www.w3.org/2000/svg" xmlns:xlink="http://www.w3.org/1999/xlink" x="0px" y="0px"
	 viewBox="0 0 201.387 201.387" style="enable-background:new 0 0 201.387 201.387;" xml:space="preserve">
<polygon style="fill:#8C6B3B;" points="175.785,64.853 25.598,64.853 35.838,47.787 165.545,47.787 "/>
<path d="M175.785,68.267H25.598c-1.231,0-2.364-0.662-2.97-1.732c-0.606-1.07-0.591-2.382,0.043-3.439l10.24-17.067
	c0.616-1.029,1.727-1.657,2.927-1.657h129.707c1.2,0,2.311,0.628,2.927,1.657l10.24,17.067c0.633,1.055,0.649,2.369,0.043,3.439
	C178.149,67.604,177.015,68.267,175.785,68.267z M31.626,61.44h138.131l-6.144-10.24H37.772L31.626,61.44z"/>
<polygon style="fill:#FBAD4A;" points="182.612,197.973 18.772,197.973 25.598,64.853 175.785,64.853 "/>
<path d="M182.612,201.387H18.772c-0.935,0-1.83-0.384-2.475-1.062c-0.643-0.678-0.981-1.592-0.934-2.526l6.827-133.12
	c0.094-1.814,1.592-3.238,3.41-3.238h150.187c1.818,0,3.316,1.423,3.41,3.238l6.827,133.12c0.048,0.935-0.29,1.848-0.934,2.526
	C184.441,201.003,183.547,201.387,182.612,201.387z M22.364,194.56h156.655l-6.477-126.293H28.841L22.364,194.56z"/>
<circle style="fill:#8C6B3B;" cx="126.292" cy="85.333" r="6.827"/>
<path d="M126.292,95.573c-5.647,0-10.24-4.593-10.24-10.24s4.593-10.24,10.24-10.24c5.647,0,10.24,4.593,10.24,10.24
	S131.939,95.573,126.292,95.573z M126.292,81.92c-1.882,0-3.413,1.531-3.413,3.413s1.531,3.413,3.413,3.413
	c1.882,0,3.413-1.531,3.413-3.413S128.174,81.92,126.292,81.92z"/>
<circle style="fill:#8C6B3B;" cx="75.092" cy="85.333" r="6.827"/>
<path d="M75.092,95.573c-5.647,0-10.24-4.593-10.24-10.24s4.593-10.24,10.24-10.24s10.24,4.593,10.24,10.24
	S80.739,95.573,75.092,95.573z M75.092,81.92c-1.882,0-3.413,1.531-3.413,3.413s1.531,3.413,3.413,3.413
	c1.882,0,3.413-1.531,3.413-3.413S76.974,81.92,75.092,81.92z"/>
<path d="M126.292,51.2h-51.2c-1.884,0-3.413-1.529-3.413-3.413V29.013C71.678,13.015,84.693,0,100.692,0
	s29.013,13.015,29.013,29.013v18.773C129.705,49.671,128.176,51.2,126.292,51.2z M78.505,44.373h44.373v-15.36
	c0-12.233-9.953-22.187-22.187-22.187S78.505,16.78,78.505,29.013V44.373z"/>
<path d="M100.692,136.533c-15.998,0-29.013-13.015-29.013-29.013V88.747c0-1.884,1.529-3.413,3.413-3.413
	c1.884,0,3.413,1.529,3.413,3.413v18.773c0,12.233,9.953,22.187,22.187,22.187s22.187-9.953,22.187-22.187V90.063
	c-0.171-0.404-0.263-0.85-0.263-1.316c0-1.884,1.529-3.413,3.413-3.413h0.263c1.884,0,3.413,1.529,3.413,3.413v18.773
	C129.705,123.518,116.69,136.533,100.692,136.533z"/>
<g>
</g>
<g>
</g>
<g>
</g>
<g>
</g>
<g>
</g>
<g>
</g>
<g>
</g>
<g>
</g>
<g>
</g>
<g>
</g>
<g>
</g>
<g>
</g>
<g>
</g>
<g>
</g>
<g>
</g>
</svg>
