<?xml version="1.0" encoding="iso-8859-1"?>
<!-- Generator: Adobe Illustrator 19.0.0, SVG Export Plug-In . SVG Version: 6.00 Build 0)  -->
<svg version="1.1" id="Capa_1" xmlns="http://www.w3.org/2000/svg" xmlns:xlink="http://www.w3.org/1999/xlink" x="0px" y="0px"
	 viewBox="0 0 512 512" style="enable-background:new 0 0 512 512;" xml:space="preserve">
<g>
	<path style="fill:#90BAE1;" d="M264.533,12.8v111.104c-1.792,0-3.584,0.171-5.291,0.341l-13.824,1.451
		c-4.406,0.421-8.772,1.192-13.056,2.304c-10.303,3.029-21.007,4.468-31.744,4.267c-32,0-32-8.533-64-8.533s-32,8.533-64.085,8.533
		s-32-8.533-64-8.533V12.8c0-4.713,3.821-8.533,8.533-8.533H256C260.713,4.267,264.533,8.087,264.533,12.8z"/>
	<path style="fill:#59474E;" d="M264.533,98.304L263.509,499.2H34.133c-14.138,0-25.6-11.462-25.6-25.6V98.133
		c32,0,32,8.533,64,8.533s32.085-8.533,64.085-8.533s32,8.533,64,8.533c10.737,0.202,21.441-1.237,31.744-4.267
		c4.284-1.112,8.65-1.883,13.056-2.304l13.824-1.451C260.949,98.475,262.741,98.304,264.533,98.304z"/>
	<path style="fill:#B0D3F0;" d="M42.667,72.533c-4.713,0-8.533-3.821-8.533-8.533V38.4c0-4.713,3.821-8.533,8.533-8.533
		S51.2,33.687,51.2,38.4V64C51.2,68.713,47.379,72.533,42.667,72.533z"/>
	<path style="fill:#7A6C71;" d="M42.667,456.533c-4.713,0-8.533-3.82-8.533-8.533V140.8c0-4.713,3.821-8.533,8.533-8.533
		s8.533,3.821,8.533,8.533V448C51.2,452.713,47.379,456.533,42.667,456.533z"/>
	<path style="fill:#E64C3C;" d="M503.381,227.413L461.824,499.2H220.928l-41.643-271.872c-0.346-2.447,0.386-4.924,2.006-6.79
		c1.62-1.866,3.97-2.938,6.442-2.938v-8.533c0.172-38.936,16.45-76.064,44.971-102.571C262.153,78.969,301.023,63.763,341.333,64
		c84.821,0,153.6,64.939,153.6,145.067v8.533c2.489-0.003,4.855,1.08,6.478,2.966C503.035,222.452,503.755,224.953,503.381,227.413z
		"/>
	<path style="fill:#C03A2B;" d="M494.933,209.067v8.533h-34.645c-4.082,0.007-7.587,2.904-8.363,6.912
		c-10.667,48.043-47.019,86.955-110.592,86.955s-99.84-38.912-110.507-86.955c-0.776-4.008-4.281-6.905-8.363-6.912h-34.731v-8.533
		c0.172-38.936,16.45-76.064,44.971-102.571C262.153,78.969,301.023,63.763,341.333,64C426.155,64,494.933,128.939,494.933,209.067z
		"/>
	<g>
		<path style="fill:#FB7B76;" d="M225.519,311.381c2.241-0.321,4.262-1.519,5.619-3.331s1.939-4.088,1.617-6.329l-2.441-17.067
			c-0.669-4.666-4.994-7.906-9.66-7.236c-4.666,0.669-7.905,4.994-7.236,9.66l2.441,17.067c0.321,2.241,1.519,4.262,3.331,5.619
			C221.002,311.121,223.278,311.703,225.519,311.381z"/>
		<path style="fill:#FB7B76;" d="M232.823,362.581c4.666-0.665,7.909-4.986,7.245-9.651l-2.432-17.067
			c-0.43-3.02-2.438-5.581-5.268-6.718c-2.83-1.138-6.052-0.679-8.452,1.203c-2.4,1.882-3.614,4.902-3.184,7.921l2.432,17.067
			c0.599,4.206,4.2,7.33,8.448,7.33C232.017,362.667,232.422,362.639,232.823,362.581z"/>
		<path style="fill:#FB7B76;" d="M244.907,387.055c-0.669-4.666-4.994-7.905-9.66-7.236c-4.666,0.669-7.906,4.994-7.236,9.66
			l10.974,76.8c0.433,3.018,2.443,5.576,5.273,6.71c2.83,1.134,6.051,0.672,8.448-1.212c2.397-1.884,3.608-4.904,3.175-7.922
			L244.907,387.055z"/>
	</g>
	<path style="fill:#F18D46;" d="M341.333,115.2c-32.99,0-59.733,26.744-59.733,59.733s26.744,59.733,59.733,59.733
		s59.733-26.744,59.733-59.733C401.029,141.959,374.308,115.238,341.333,115.2z M341.333,200.533c-14.138,0-25.6-11.462-25.6-25.6
		c0-14.139,11.462-25.6,25.6-25.6c14.138,0,25.6,11.462,25.6,25.6C366.891,189.054,355.454,200.491,341.333,200.533z"/>
	<g>
		<path style="fill:#FAC176;" d="M472.917,217.6h-12.629c-4.082,0.007-7.587,2.904-8.363,6.912
			c-2.001,9.292-5.094,18.315-9.216,26.88c0.692-2.675,1.036-5.429,1.024-8.192c-0.006-16.108-11.273-30.019-27.028-33.372
			c-15.755-3.353-31.71,4.765-38.275,19.474c-6.565,14.71-1.953,32.007,11.064,41.495c13.017,9.488,30.896,8.585,42.89-2.167
			c-12.536,17.43-30.379,30.333-50.859,36.779c-23.916-10.762-39.542-34.284-40.192-60.501v-3.413
			c0.085-2.304,0.256-4.608,0.512-6.827c3.89-30.953,28.268-55.331,59.221-59.221c2.831-0.343,5.681-0.514,8.533-0.512
			C437.424,174.939,462.466,191.814,472.917,217.6z"/>
		<path style="fill:#FAC176;" d="M341.333,241.493v3.413c-0.65,26.217-16.276,49.74-40.192,60.501
			c-20.429-6.501-38.228-19.395-50.773-36.779c6.22,5.624,14.313,8.727,22.699,8.704c18.851,0,34.133-15.282,34.133-34.133
			s-15.282-34.133-34.133-34.133c-18.851,0-34.133,15.282-34.133,34.133c0.002,2.645,0.317,5.28,0.939,7.851
			c-4.028-8.468-7.063-17.373-9.045-26.539c-0.776-4.008-4.281-6.905-8.363-6.912h-12.715
			c10.451-25.786,35.494-42.661,63.317-42.667c2.852-0.002,5.702,0.169,8.533,0.512c30.953,3.89,55.331,28.268,59.221,59.221
			C341.077,236.885,341.248,239.189,341.333,241.493z"/>
	</g>
	<path style="fill:#804537;" d="M503.467,507.733H8.533C3.821,507.733,0,503.913,0,499.2c0-4.713,3.821-8.533,8.533-8.533h494.933
		c4.713,0,8.533,3.821,8.533,8.533C512,503.913,508.18,507.733,503.467,507.733z"/>
</g>
<g>
</g>
<g>
</g>
<g>
</g>
<g>
</g>
<g>
</g>
<g>
</g>
<g>
</g>
<g>
</g>
<g>
</g>
<g>
</g>
<g>
</g>
<g>
</g>
<g>
</g>
<g>
</g>
<g>
</g>
</svg>
