<?xml version="1.0" encoding="iso-8859-1"?>
<!-- Generator: Adobe Illustrator 19.0.0, SVG Export Plug-In . SVG Version: 6.00 Build 0)  -->
<svg version="1.1" id="Capa_1" xmlns="http://www.w3.org/2000/svg" xmlns:xlink="http://www.w3.org/1999/xlink" x="0px" y="0px"
	 viewBox="0 0 512.124 512.124" style="enable-background:new 0 0 512.124 512.124;" xml:space="preserve">
<g>
	<path style="fill:#59474E;" d="M441.379,35.351v29.572c-0.221,13.367,7.316,25.654,19.332,31.514
		c31.25,14.447,51.265,45.727,51.288,80.154V476.73c1.07,12.234-4.851,24.025-15.304,30.472c-10.452,6.447-23.647,6.447-34.099,0
		s-16.374-18.238-15.304-30.472c1.071,12.25-4.859,24.057-15.325,30.512c-10.466,6.455-23.678,6.455-34.144,0
		c-10.466-6.455-16.396-18.262-15.325-30.512c1.07,12.234-4.851,24.025-15.304,30.472s-23.647,6.447-34.099,0
		c-10.452-6.447-16.374-18.238-15.304-30.472V176.592c0.024-34.427,20.039-65.707,51.288-80.154
		c12.017-5.86,19.554-18.147,19.332-31.514V35.351H441.379z"/>
	<path style="fill:#C03A2B;" d="M397.241,0.041h35.31c9.751,0,17.655,7.904,17.655,17.655v8.828c0,4.875-3.952,8.828-8.828,8.828
		h-52.966c-4.875,0-8.828-3.952-8.828-8.828v-8.828C379.586,7.945,387.491,0.041,397.241,0.041z"/>
	<rect x="317.793" y="220.73" style="fill:#E64C3C;" width="194.207" height="150.069"/>
	<path style="fill:#7A6C71;" d="M485.517,176.592v44.138h-17.655v-44.138c0-4.875,3.952-8.828,8.828-8.828
		S485.517,171.717,485.517,176.592z"/>
	<path style="fill:#FB7B76;" d="M485.517,220.73v61.793c0,4.875-3.952,8.828-8.828,8.828s-8.828-3.952-8.828-8.828V220.73H485.517z"
		/>
	<path style="fill:#7A6C71;" d="M485.517,370.799v52.966c0,4.875-3.952,8.828-8.828,8.828s-8.828-3.952-8.828-8.828v-52.966H485.517
		z"/>
	<path style="fill:#FB7B76;" d="M485.517,317.834v52.966h-17.655v-52.966c0-4.875,3.952-8.828,8.828-8.828
		S485.517,312.958,485.517,317.834z"/>
	<path style="fill:#14A085;" d="M317.793,361.972v79.448h-49.346c-2.314,0.018-4.53,0.936-6.179,2.56l-41.578,41.578l-41.578-41.578
		c-1.649-1.624-3.865-2.542-6.179-2.56H26.483v-79.448H317.793z"/>
	<path style="fill:#804537;" d="M317.793,326.749c-0.497-0.073-0.999-0.103-1.501-0.088H26.483
		c-7.358,0.005-14.383,3.071-19.389,8.463c-5.007,5.392-7.545,12.624-7.005,19.962c1.514,14.183,13.635,24.846,27.895,24.541h289.81
		c7.358-0.005,14.383-3.071,19.389-8.462c5.007-5.392,7.545-12.624,7.005-19.962C342.763,337.587,331.477,327.131,317.793,326.749z"
		/>
	<path style="fill:#F0C419;" d="M317.793,264.868v61.881c-0.497-0.073-0.999-0.103-1.501-0.088H180.171
		c-2.314,0.018-4.53,0.936-6.179,2.56l-50.406,50.405l-50.406-50.405c-1.649-1.624-3.865-2.542-6.179-2.56H26.483v-61.793H317.793z"
		/>
	<g>
		<path style="fill:#F29C1F;" d="M335.448,282.523H8.828c-4.875,0-8.828-3.952-8.828-8.828v-8.828
			c0-48.753,39.522-88.276,88.276-88.276H256c48.753,0,88.276,39.522,88.276,88.276v8.828
			C344.276,278.571,340.324,282.523,335.448,282.523z"/>
		<path style="fill:#F29C1F;" d="M344.276,432.592v26.483c0,29.219-32.574,52.966-61.793,52.966H52.966
			C23.713,512.041,0,488.327,0,459.075v-26.483c0-4.875,3.952-8.828,8.828-8.828h164.105c2.314,0.018,4.53,0.936,6.179,2.56
			l41.578,41.578l41.578-41.578c1.649-1.624,3.865-2.542,6.179-2.56h67.001C340.324,423.765,344.276,427.717,344.276,432.592z"/>
	</g>
	<g>
		<path style="fill:#E57E25;" d="M97.103,211.903h-8.828c-4.875,0-8.828,3.952-8.828,8.828s3.952,8.828,8.828,8.828h8.828
			c4.875,0,8.828-3.952,8.828-8.828S101.979,211.903,97.103,211.903z"/>
		<path style="fill:#E57E25;" d="M150.069,229.558h-8.828c-4.875,0-8.828,3.952-8.828,8.828s3.952,8.828,8.828,8.828h8.828
			c4.875,0,8.828-3.952,8.828-8.828S154.944,229.558,150.069,229.558z"/>
		<path style="fill:#E57E25;" d="M256,229.558h-8.828c-4.875,0-8.828,3.952-8.828,8.828s3.952,8.828,8.828,8.828H256
			c4.875,0,8.828-3.952,8.828-8.828S260.875,229.558,256,229.558z"/>
		<path style="fill:#E57E25;" d="M203.034,211.903h-8.828c-4.875,0-8.828,3.952-8.828,8.828s3.952,8.828,8.828,8.828h8.828
			c4.875,0,8.828-3.952,8.828-8.828S207.91,211.903,203.034,211.903z"/>
	</g>
</g>
<g>
</g>
<g>
</g>
<g>
</g>
<g>
</g>
<g>
</g>
<g>
</g>
<g>
</g>
<g>
</g>
<g>
</g>
<g>
</g>
<g>
</g>
<g>
</g>
<g>
</g>
<g>
</g>
<g>
</g>
</svg>
