<?xml version="1.0" encoding="iso-8859-1"?>
<!-- Generator: Adobe Illustrator 19.0.0, SVG Export Plug-In . SVG Version: 6.00 Build 0)  -->
<svg version="1.1" id="Capa_1" xmlns="http://www.w3.org/2000/svg" xmlns:xlink="http://www.w3.org/1999/xlink" x="0px" y="0px"
	 viewBox="0 0 512.03 512.03" style="enable-background:new 0 0 512.03 512.03;" xml:space="preserve">
<g transform="translate(-1)">
	<circle style="fill:#E57E25;" cx="274.685" cy="273.67" r="238.345"/>
	<path style="fill:#F0C419;" d="M274.685,79.463V273.67L137.416,136.401C173.797,99.948,223.184,79.463,274.685,79.463z"/>
	<path style="fill:#F3D55B;" d="M411.954,136.401L274.685,273.67V79.463C326.187,79.463,375.573,99.948,411.954,136.401z"/>
	<path style="fill:#F0C419;" d="M468.892,273.67H274.685l137.269-137.269C448.408,172.782,468.893,222.169,468.892,273.67z"/>
	<path style="fill:#F3D55B;" d="M468.892,273.67c0,51.501-20.485,100.888-56.938,137.269L274.685,273.67H468.892z"/>
	<path style="fill:#F0C419;" d="M411.954,410.939c-36.381,36.453-85.767,56.938-137.269,56.938V273.67L411.954,410.939z"/>
	<path style="fill:#F3D55B;" d="M274.685,273.67v194.207c-51.502,0-100.888-20.485-137.269-56.938L274.685,273.67z"/>
	<path style="fill:#F0C419;" d="M274.685,273.67L137.416,410.939c-36.453-36.381-56.938-85.767-56.938-137.269H274.685z"/>
	<path style="fill:#F3D55B;" d="M274.685,273.67H80.479c0-51.501,20.485-100.888,56.938-137.269L274.685,273.67z"/>
	<g>
		<circle style="fill:#FF5364;" cx="407.099" cy="326.636" r="17.655"/>
		<circle style="fill:#FF5364;" cx="398.272" cy="220.705" r="17.655"/>
		<circle style="fill:#FF5364;" cx="212.892" cy="158.912" r="26.483"/>
		<circle style="fill:#FF5364;" cx="327.651" cy="406.084" r="17.655"/>
		<path style="fill:#FF5364;" d="M354.134,317.808c-0.592-0.019-1.182-0.078-1.766-0.177c-0.551-0.104-1.086-0.282-1.589-0.53
			c-0.565-0.198-1.102-0.468-1.598-0.803l-1.315-1.05c-1.614-1.691-2.528-3.93-2.56-6.268c0.013-1.157,0.253-2.299,0.706-3.363
			c0.448-1.067,1.075-2.049,1.854-2.904l1.315-1.059c0.496-0.335,1.033-0.605,1.598-0.803c0.499-0.257,1.035-0.432,1.589-0.521
			c1.128-0.274,2.306-0.274,3.434,0c0.588,0.075,1.158,0.251,1.686,0.521c0.542,0.181,1.05,0.452,1.501,0.803
			c0.521,0.353,0.971,0.706,1.412,1.059c0.8,0.839,1.429,1.826,1.854,2.904c0.453,1.064,0.693,2.207,0.706,3.363
			c0.024,2.348-0.899,4.608-2.559,6.268C358.741,316.91,356.482,317.832,354.134,317.808z"/>
		<path style="fill:#FF5364;" d="M239.375,423.739c-0.592-0.019-1.182-0.078-1.766-0.177c-0.551-0.104-1.086-0.282-1.589-0.53
			c-0.565-0.198-1.102-0.468-1.598-0.803l-1.315-1.05c-1.614-1.691-2.528-3.93-2.56-6.268c0.013-1.157,0.253-2.299,0.706-3.363
			c0.448-1.067,1.075-2.049,1.854-2.904l1.315-1.059c0.496-0.335,1.033-0.605,1.598-0.803c0.499-0.257,1.035-0.432,1.589-0.521
			c1.128-0.274,2.306-0.274,3.434,0c0.588,0.075,1.158,0.251,1.686,0.521c0.542,0.181,1.05,0.452,1.501,0.803
			c0.521,0.353,0.971,0.706,1.412,1.059c0.8,0.839,1.429,1.826,1.854,2.904c0.453,1.064,0.693,2.207,0.706,3.363
			c0.024,2.348-0.899,4.608-2.559,6.268C243.983,422.841,241.724,423.763,239.375,423.739z"/>
		<path style="fill:#FF5364;" d="M239.375,370.774c-0.592-0.019-1.182-0.078-1.766-0.177c-0.551-0.104-1.086-0.282-1.589-0.53
			c-0.565-0.198-1.102-0.468-1.598-0.803l-1.315-1.05c-1.614-1.691-2.528-3.93-2.56-6.268c0.013-1.157,0.253-2.299,0.706-3.363
			c0.448-1.067,1.075-2.049,1.854-2.904l1.315-1.059c0.496-0.335,1.033-0.605,1.598-0.803c0.499-0.257,1.035-0.432,1.589-0.521
			c1.128-0.274,2.306-0.274,3.434,0c0.588,0.075,1.158,0.251,1.686,0.521c0.542,0.181,1.05,0.452,1.501,0.803
			c0.521,0.353,0.971,0.706,1.412,1.059c0.8,0.839,1.429,1.826,1.854,2.904c0.453,1.064,0.693,2.207,0.706,3.363
			c0.024,2.348-0.899,4.608-2.559,6.268C243.983,369.875,241.724,370.798,239.375,370.774z"/>
		<path style="fill:#FF5364;" d="M318.823,185.394c-0.592-0.015-1.182-0.074-1.766-0.177c-0.553-0.096-1.089-0.275-1.589-0.53
			c-0.565-0.195-1.102-0.462-1.598-0.794l-1.315-1.059c-1.615-1.69-2.53-3.93-2.56-6.268c0.014-1.154,0.254-2.293,0.706-3.354
			c0.448-1.069,1.075-2.055,1.854-2.913l1.315-1.059c0.496-0.333,1.033-0.6,1.598-0.794c0.5-0.255,1.036-0.434,1.589-0.53
			c1.129-0.265,2.305-0.265,3.434,0c0.587,0.082,1.157,0.261,1.686,0.53c0.542,0.178,1.049,0.446,1.501,0.794
			c0.521,0.353,0.971,0.706,1.412,1.059c0.798,0.844,1.427,1.833,1.854,2.913c0.452,1.061,0.692,2.201,0.706,3.354
			c0.024,2.348-0.899,4.608-2.559,6.268C323.431,184.496,321.172,185.418,318.823,185.394z"/>
		<path style="fill:#FF5364;" d="M309.996,141.257c-0.592-0.015-1.182-0.074-1.766-0.177c-0.553-0.096-1.089-0.275-1.589-0.53
			c-0.565-0.195-1.102-0.462-1.598-0.794l-1.315-1.059c-1.615-1.69-2.53-3.93-2.56-6.268c0.014-1.154,0.254-2.293,0.706-3.354
			c0.448-1.069,1.075-2.055,1.854-2.913l1.315-1.059c0.496-0.333,1.033-0.6,1.598-0.794c0.5-0.255,1.036-0.434,1.589-0.53
			c1.129-0.265,2.305-0.265,3.434,0c0.587,0.082,1.157,0.261,1.686,0.53c0.542,0.178,1.049,0.446,1.501,0.794
			c0.521,0.353,0.971,0.706,1.412,1.059c0.798,0.844,1.427,1.833,1.854,2.913c0.452,1.061,0.692,2.201,0.706,3.354
			c0.024,2.348-0.899,4.608-2.559,6.268C314.603,140.358,312.344,141.28,309.996,141.257z"/>
		<path style="fill:#FF5364;" d="M354.134,158.912c-0.592-0.015-1.182-0.074-1.766-0.177c-0.553-0.096-1.089-0.275-1.589-0.53
			c-0.565-0.195-1.102-0.462-1.598-0.794l-1.315-1.059c-1.615-1.69-2.53-3.93-2.56-6.268c0.014-1.154,0.254-2.293,0.706-3.354
			c0.448-1.069,1.075-2.055,1.854-2.913l1.315-1.059c0.496-0.333,1.033-0.6,1.598-0.794c0.5-0.255,1.036-0.434,1.589-0.53
			c1.129-0.265,2.305-0.265,3.434,0c0.587,0.082,1.157,0.261,1.686,0.53c0.542,0.178,1.049,0.446,1.501,0.794
			c0.521,0.353,0.971,0.706,1.412,1.059c0.798,0.844,1.427,1.833,1.854,2.913c0.452,1.061,0.692,2.201,0.706,3.354
			c0.024,2.348-0.899,4.608-2.559,6.268C358.741,158.013,356.482,158.936,354.134,158.912z"/>
	</g>
	<path style="fill:#59474E;" d="M124.616,26.498v38.4c-0.221,13.367,7.316,25.654,19.332,31.514
		c31.25,14.447,51.265,45.727,51.288,80.154v300.138c0.782,18.689-13.71,34.485-32.397,35.31
		c-18.654-0.868-33.097-16.653-32.309-35.31c0.782,18.689-13.71,34.485-32.397,35.31c-18.687-0.826-33.18-16.621-32.397-35.31
		c0.788,18.658-13.655,34.442-32.309,35.31c-18.687-0.826-33.18-16.621-32.397-35.31V176.567
		c0.024-34.427,20.039-65.707,51.288-80.154c12.017-5.86,19.554-18.147,19.332-31.514v-38.4H124.616z"/>
	<path style="fill:#C03A2B;" d="M80.479,0.015h35.31c9.751,0,17.655,7.904,17.655,17.655v8.828c0,4.875-3.952,8.828-8.828,8.828
		H71.651c-4.875,0-8.828-3.952-8.828-8.828V17.67C62.823,7.92,70.728,0.015,80.479,0.015z"/>
	<rect x="1.03" y="220.705" style="fill:#E64C3C;" width="194.207" height="150.069"/>
	<path style="fill:#7A6C71;" d="M45.168,176.567v44.138H27.513v-44.138c0-4.875,3.952-8.828,8.828-8.828
		S45.168,171.692,45.168,176.567z"/>
	<path style="fill:#FB7B76;" d="M45.168,220.705v61.793c0,4.875-3.952,8.828-8.828,8.828s-8.828-3.952-8.828-8.828v-61.793H45.168z"
		/>
	<path style="fill:#7A6C71;" d="M45.168,370.774v52.966c0,4.875-3.952,8.828-8.828,8.828s-8.828-3.952-8.828-8.828v-52.966H45.168z"
		/>
	<path style="fill:#FB7B76;" d="M45.168,317.808v52.966H27.513v-52.966c0-4.875,3.952-8.828,8.828-8.828
		S45.168,312.933,45.168,317.808z"/>
</g>
<g>
</g>
<g>
</g>
<g>
</g>
<g>
</g>
<g>
</g>
<g>
</g>
<g>
</g>
<g>
</g>
<g>
</g>
<g>
</g>
<g>
</g>
<g>
</g>
<g>
</g>
<g>
</g>
<g>
</g>
</svg>
