<?xml version="1.0" encoding="iso-8859-1"?>
<!-- Generator: Adobe Illustrator 19.0.0, SVG Export Plug-In . SVG Version: 6.00 Build 0)  -->
<svg xmlns="http://www.w3.org/2000/svg" xmlns:xlink="http://www.w3.org/1999/xlink" version="1.1" id="Capa_1" x="0px" y="0px" viewBox="0 0 512 512" style="enable-background:new 0 0 512 512;" xml:space="preserve">
<g>
	
	
	
	
	<path style="fill:#E57E25;" d="M203.034,229.517c112.133,0,203.034,90.902,203.034,203.034v17.655   c0,9.751-7.905,17.655-17.655,17.655H17.655C7.904,467.862,0,459.958,0,450.207v-17.655C0,320.419,90.902,229.517,203.034,229.517z   "/>
	<path style="fill:#4FBA6F;" d="M425.401,335.272c7.394-11.326,9.152-25.428,4.767-38.223c-2.657-9.356-6.994-18.15-12.8-25.953   c-11.123-13.153-29.308-18.803-42.814-29.219c-13.506-10.417-23.658-26.659-39.194-33.986c-15.272-7.15-34.074-4.679-50.847-8.474   c-16.331-3.619-32.309-14.036-49.699-14.036c-16.861,0-32.486,10.328-48.287,13.771c-16.419,3.619-34.869,0.794-49.788,7.592   c-15.095,6.974-25.07,22.863-38.4,32.75c-13.33,9.887-31.338,14.919-42.284,27.366c-7.415,8.298-8.651,22.069-11.123,34.692   c-2.345,12.426,0.775,25.26,8.563,35.222l9.092,11.211L425.401,335.272z"/>
	<path style="fill:#F29C1F;" d="M247.172,229.517c112.133,0,203.035,90.902,203.035,203.034v17.655   c0,9.751-7.905,17.655-17.655,17.655H61.793c-9.751,0-17.655-7.904-17.655-17.655v-17.655   C44.138,320.419,135.04,229.517,247.172,229.517z"/>
	<g>
		<path style="fill:#E57E25;" d="M105.931,411.242l-6.241,6.241c-2.295,2.216-3.215,5.499-2.407,8.585    c0.808,3.086,3.218,5.497,6.305,6.305c3.086,0.808,6.369-0.112,8.585-2.407l6.241-6.241c2.295-2.216,3.215-5.499,2.407-8.585    c-0.808-3.086-3.218-5.497-6.305-6.305C111.43,408.027,108.147,408.947,105.931,411.242z"/>
		<path style="fill:#E57E25;" d="M112.172,340.621l-6.241,6.241c-2.295,2.216-3.215,5.499-2.407,8.585s3.218,5.497,6.305,6.305    c3.086,0.808,6.369-0.112,8.585-2.407l6.241-6.241c2.295-2.216,3.215-5.499,2.407-8.585s-3.218-5.497-6.305-6.305    C117.671,337.406,114.389,338.326,112.172,340.621z"/>
		<path style="fill:#E57E25;" d="M191.62,411.242c-3.447-3.446-9.035-3.446-12.482,0l-6.241,6.241    c-2.295,2.216-3.215,5.499-2.407,8.585c0.808,3.086,3.218,5.497,6.305,6.305c3.086,0.808,6.369-0.112,8.585-2.407l6.241-6.241    C195.067,420.277,195.067,414.689,191.62,411.242z"/>
	</g>
</g>
<g>
</g>
<g>
</g>
<g>
</g>
<g>
</g>
<g>
</g>
<g>
</g>
<g>
</g>
<g>
</g>
<g>
</g>
<g>
</g>
<g>
</g>
<g>
</g>
<g>
</g>
<g>
</g>
<g>
</g>
</svg>
