<?xml version="1.0" encoding="iso-8859-1"?>
<!-- Generator: Adobe Illustrator 19.0.0, SVG Export Plug-In . SVG Version: 6.00 Build 0)  -->
<svg version="1.1" id="Capa_1" xmlns="http://www.w3.org/2000/svg" xmlns:xlink="http://www.w3.org/1999/xlink" x="0px" y="0px"
	 viewBox="0 0 512 512" style="enable-background:new 0 0 512 512;" xml:space="preserve">
<g>
	<g>
		<path style="fill:#E57E25;" d="M25.6,384h290.133c4.713,0,8.533,3.82,8.533,8.533V435.2c0,37.703-30.564,68.267-68.267,68.267
			H85.333c-37.703,0-68.267-30.564-68.267-68.267v-42.667C17.067,387.821,20.887,384,25.6,384z"/>
		<g>
			<path style="fill:#4482C3;" d="M341.598,68.267c-4.713,0-8.533-3.821-8.533-8.533V17.067h-42.667
				c-4.713,0-8.533-3.821-8.533-8.533S285.685,0,290.398,0h42.667c9.426,0,17.067,7.641,17.067,17.067v42.667
				C350.131,64.446,346.311,68.267,341.598,68.267z"/>
			<polygon style="fill:#4482C3;" points="460.8,128 419.601,503.467 256,503.467 214.801,128 			"/>
		</g>
		<path style="fill:#E6E7E8;" d="M240.401,59.733H435.2c9.426,0,17.067,7.641,17.067,17.067v34.133H223.334V76.8
			C223.334,67.374,230.975,59.733,240.401,59.733z"/>
		<path style="fill:#D1D4D1;" d="M214.801,93.867H460.8c9.426,0,17.067,7.641,17.067,17.067V128c0,4.713-3.821,8.533-8.533,8.533
			H206.268c-4.713,0-8.533-3.821-8.533-8.533v-17.067C197.734,101.508,205.375,93.867,214.801,93.867z"/>
	</g>
	<path style="fill:none;stroke:#000000;stroke-width:2;stroke-linecap:round;stroke-linejoin:round;" d="M315.733,384h-256"/>
	<g>
		<path style="fill:#F0C419;" d="M349.867,349.867l8.533,17.067L42.667,358.4v-8.533c0,0-8.533-34.133,34.133-34.133
			c27.733,0,27.733-8.533,55.467-8.533s27.819,8.533,55.552,8.533s27.733-8.533,55.467-8.533s27.648,8.533,55.381,8.533
			C298.667,315.733,341.333,315.733,349.867,349.867z"/>
		<path style="fill:#E64C3C;" d="M340.821,349.867H43.776C46.933,341.333,55.467,332.8,76.8,332.8
			c27.733,0,27.733-8.533,55.467-8.533s27.819,8.533,55.552,8.533s27.733-8.533,55.467-8.533s27.648,8.533,55.381,8.533
			C298.667,332.8,325.547,332.8,340.821,349.867z"/>
		<path style="fill:#804537;" d="M51.2,409.6H38.4c-16.495,0-29.867-13.372-29.867-29.867c0-16.495,13.372-29.867,29.867-29.867
			h315.733c16.495,0,29.867,13.372,29.867,29.867c-0.065,14.816-10.943,27.362-25.6,29.525L51.2,409.6z"/>
		<path style="fill:#F29C1F;" d="M59.733,384h290.133c4.713,0,8.533,3.82,8.533,8.533V435.2c0,37.703-30.564,68.267-68.267,68.267
			H119.467c-37.703,0-68.267-30.564-68.267-68.267v-42.667C51.2,387.821,55.021,384,59.733,384z"/>
		<g>
			<path style="fill:#804537;" d="M503.467,512H486.4c-4.713,0-8.533-3.82-8.533-8.533c0-4.713,3.82-8.533,8.533-8.533h17.067
				c4.713,0,8.533,3.821,8.533,8.533C512,508.18,508.18,512,503.467,512z"/>
			<path style="fill:#804537;" d="M452.267,512H8.533C3.821,512,0,508.18,0,503.467c0-4.713,3.821-8.533,8.533-8.533h443.733
				c4.713,0,8.533,3.821,8.533,8.533C460.8,508.18,456.98,512,452.267,512z"/>
		</g>
	</g>
</g>
<g>
</g>
<g>
</g>
<g>
</g>
<g>
</g>
<g>
</g>
<g>
</g>
<g>
</g>
<g>
</g>
<g>
</g>
<g>
</g>
<g>
</g>
<g>
</g>
<g>
</g>
<g>
</g>
<g>
</g>
</svg>
