<?xml version="1.0" encoding="iso-8859-1"?>
<!-- Generator: Adobe Illustrator 19.0.0, SVG Export Plug-In . SVG Version: 6.00 Build 0)  -->
<svg version="1.1" id="Capa_1" xmlns="http://www.w3.org/2000/svg" xmlns:xlink="http://www.w3.org/1999/xlink" x="0px" y="0px"
	 viewBox="0 0 512 512" style="enable-background:new 0 0 512 512;" xml:space="preserve">
<g>
	<path style="fill:#FAC176;" d="M96.927,146.098V97.105c12.642-0.005,23.518-8.944,25.97-21.346s-4.203-24.808-15.892-29.623
		s-25.151-0.698-32.147,9.832C67.863,45.438,54.4,41.32,42.711,46.136S24.367,63.357,26.819,75.759S40.147,97.1,52.789,97.105
		v48.993H96.927z"/>
	<path style="fill:#E57E25;" d="M8.828,229.519c1.324-38.453,19.332-70.718,43.961-82.882c13.834-7.192,30.304-7.192,44.138,0
		c24.629,12.164,42.637,44.429,43.961,82.882H8.828z"/>
	<path style="fill:#FAC176;" d="M229.341,146.098V97.105c12.642-0.005,23.518-8.944,25.97-21.346
		c2.452-12.402-4.203-24.808-15.892-29.623c-11.689-4.815-25.151-0.698-32.147,9.832c-6.995-10.53-20.458-14.648-32.147-9.832
		c-11.689,4.815-18.344,17.221-15.892,29.623s13.328,21.341,25.97,21.346v48.993H229.341z"/>
	<path style="fill:#E57E25;" d="M141.241,229.519c1.324-38.453,19.332-70.718,43.961-82.882c13.834-7.192,30.304-7.192,44.138,0
		c24.629,12.164,42.637,44.429,43.961,82.882H141.241z"/>
	<path style="fill:#F0C419;" d="M476.69,141.243h-44.138V97.105c0-4.875-3.952-8.828-8.828-8.828h-44.138V79.45
		c0-4.875-3.952-8.828-8.828-8.828h-35.31c-4.875,0-8.828,3.952-8.828,8.828v26.483h-44.138c-4.875,0-8.828,3.952-8.828,8.828
		v123.586h211.862V150.07C485.517,145.195,481.565,141.243,476.69,141.243z"/>
	<g>
		<path style="fill:#F3D55B;" d="M335.448,70.622h35.31c4.875,0,8.828,3.952,8.828,8.828v141.241h-52.966V79.45
			C326.621,74.574,330.573,70.622,335.448,70.622z"/>
		<path style="fill:#F3D55B;" d="M432.552,141.243h44.138c4.875,0,8.828,3.952,8.828,8.828v70.621h-52.966V141.243z"/>
	</g>
	<g>
		<path style="fill:#C03A2B;" d="M503.172,220.691H8.828c-4.875,0-8.828,3.952-8.828,8.828v211.862
			c0,14.626,11.857,26.483,26.483,26.483h459.034c14.626,0,26.483-11.857,26.483-26.483V229.519
			C512,224.643,508.048,220.691,503.172,220.691z"/>
		<path style="fill:#C03A2B;" d="M88.276,220.691v247.172H26.483C11.857,467.863,0,456.007,0,441.381V229.519
			c0-4.875,3.952-8.828,8.828-8.828H88.276z"/>
	</g>
	<g>
		<rect x="88.276" y="220.691" style="fill:#E64C3C;" width="88.276" height="247.172"/>
		<rect x="335.448" y="220.691" style="fill:#E64C3C;" width="88.276" height="247.172"/>
	</g>
	<path style="fill:#C03A2B;" d="M512,229.519v211.862c0,14.626-11.857,26.483-26.483,26.483h-61.793V220.691h79.448
		C508.048,220.691,512,224.643,512,229.519z"/>
</g>
<g>
</g>
<g>
</g>
<g>
</g>
<g>
</g>
<g>
</g>
<g>
</g>
<g>
</g>
<g>
</g>
<g>
</g>
<g>
</g>
<g>
</g>
<g>
</g>
<g>
</g>
<g>
</g>
<g>
</g>
</svg>
