<?xml version="1.0" encoding="iso-8859-1"?>
<!-- Generator: Adobe Illustrator 19.0.0, SVG Export Plug-In . SVG Version: 6.00 Build 0)  -->
<svg version="1.1" id="Capa_1" xmlns="http://www.w3.org/2000/svg" xmlns:xlink="http://www.w3.org/1999/xlink" x="0px" y="0px"
	 viewBox="0 0 512 512" style="enable-background:new 0 0 512 512;" xml:space="preserve">
<g transform="translate(0 -1)">
	<path style="fill:#F29C1F;" d="M418.133,141.808v25.6h-204.8v-25.6c0-37.717,45.824-68.267,102.4-68.267
		c19.038-0.159,37.91,3.557,55.467,10.923c13.443,5.376,25.367,13.96,34.731,25.003
		C413.624,118.506,417.938,129.939,418.133,141.808z"/>
	<path style="fill:#804537;" d="M123.477,100.25L54.426,31.728c-1.593-1.58-2.488-3.73-2.488-5.973s0.896-4.394,2.488-5.973
		L66.509,7.757c3.332-3.331,8.734-3.331,12.066,0l75.452,74.88L123.477,100.25z"/>
	<path style="fill:#F0C419;" d="M307.2,141.808v25.6H102.4v-25.6c0-37.717,45.824-68.267,102.4-68.267
		c19.038-0.159,37.91,3.557,55.467,10.923c13.443,5.376,25.367,13.96,34.731,25.003C302.691,118.506,307.005,129.939,307.2,141.808z
		"/>
	<g>
		<path style="fill:#D1D4D1;" d="M503.467,269.808c-2.985,0.004-5.755-1.553-7.305-4.105L428.919,154.77
			c-2.446-4.029-1.162-9.279,2.867-11.725c4.029-2.446,9.279-1.162,11.725,2.867l67.243,110.933
			c1.599,2.634,1.654,5.925,0.144,8.611C509.388,268.142,506.548,269.805,503.467,269.808z"/>
		<path style="fill:#D1D4D1;" d="M8.533,269.808c-3.08-0.001-5.92-1.662-7.432-4.346c-1.512-2.684-1.46-5.973,0.136-8.608
			l67.072-110.933c2.441-4.034,7.691-5.326,11.725-2.884c4.034,2.441,5.326,7.691,2.884,11.725L15.846,265.695
			C14.298,268.252,11.523,269.813,8.533,269.808z"/>
	</g>
	<polygon style="fill:#4482C3;" points="435.2,141.808 395.52,355.141 392.363,372.208 368.555,500.208 143.445,500.208 
		119.637,372.208 116.48,355.141 76.8,141.808 	"/>
	<g>
		<path style="fill:#804537;" d="M503.467,491.674h-25.6c-4.713,0-8.533,3.82-8.533,8.533s3.821,8.533,8.533,8.533h25.6
			c4.713,0,8.533-3.82,8.533-8.533S508.18,491.674,503.467,491.674z"/>
		<path style="fill:#804537;" d="M443.733,491.674H8.533c-4.713,0-8.533,3.82-8.533,8.533s3.821,8.533,8.533,8.533h435.2
			c4.713,0,8.533-3.82,8.533-8.533S448.446,491.674,443.733,491.674z"/>
	</g>
	<polygon style="fill:#285680;" points="395.52,355.141 392.363,372.208 119.637,372.208 116.48,355.141 	"/>
	<path style="fill:#F29C1F;" d="M273.067,141.808H136.533c0-13.909,26.624-34.133,68.267-34.133S273.067,127.898,273.067,141.808z"
		/>
	<path style="fill:#E57E25;" d="M384,141.808h-76.8c-0.195-11.869-4.509-23.301-12.203-32.341
		c6.848-1.191,13.785-1.791,20.736-1.792C357.376,107.674,384,127.898,384,141.808z"/>
	<path style="fill:#D1D4D1;" d="M436.224,141.808l-62.208,102.827c-2.993,5.021-8.405,8.1-14.251,8.107H152.064
		c-5.84-0.027-11.243-3.101-14.251-8.107L75.605,141.808H436.224z"/>
	<circle style="fill:#F0C419;" cx="256" cy="363.674" r="68.267"/>
</g>
<g>
</g>
<g>
</g>
<g>
</g>
<g>
</g>
<g>
</g>
<g>
</g>
<g>
</g>
<g>
</g>
<g>
</g>
<g>
</g>
<g>
</g>
<g>
</g>
<g>
</g>
<g>
</g>
<g>
</g>
</svg>
