<?xml version="1.0" encoding="iso-8859-1"?>
<!-- Generator: Adobe Illustrator 19.0.0, SVG Export Plug-In . SVG Version: 6.00 Build 0)  -->
<svg version="1.1" id="Capa_1" xmlns="http://www.w3.org/2000/svg" xmlns:xlink="http://www.w3.org/1999/xlink" x="0px" y="0px"
	 viewBox="0 0 512 512" style="enable-background:new 0 0 512 512;" xml:space="preserve">
<g>
	<g>
		<path style="fill:#4482C3;" d="M366.933,68.267c-4.713,0-8.533-3.821-8.533-8.533V17.067h-42.667
			c-4.713,0-8.533-3.821-8.533-8.533S311.021,0,315.733,0H358.4c9.426,0,17.067,7.641,17.067,17.067v42.667
			C375.467,64.446,371.646,68.267,366.933,68.267z"/>
		<polygon style="fill:#4482C3;" points="477.867,128 436.668,503.467 280.132,503.467 238.933,128 		"/>
	</g>
	<path style="fill:#E6E7E8;" d="M273.067,59.733h179.2c9.426,0,17.067,7.641,17.067,17.067v34.133H256V76.8
		C256,67.374,263.641,59.733,273.067,59.733z"/>
	<path style="fill:#D1D4D1;" d="M247.467,93.867h230.4c9.426,0,17.067,7.641,17.067,17.067V128c0,4.713-3.82,8.533-8.533,8.533
		H238.933c-4.713,0-8.533-3.821-8.533-8.533v-17.067C230.4,101.508,238.041,93.867,247.467,93.867z"/>
	<path style="fill:#E64C3C;" d="M332.715,231.595l-41.643,271.872H50.176L8.619,231.68c-0.373-2.46,0.346-4.961,1.97-6.847
		c1.624-1.886,3.99-2.969,6.478-2.966h34.645c4.082,0.007,7.587,2.904,8.363,6.912c4.623,22.916,16.359,43.79,33.536,59.648
		c14.453,13.017,32.29,21.684,51.456,25.003c8.441,1.578,17.013,2.35,25.6,2.304c8.592,0.061,17.168-0.739,25.6-2.389
		c19.164-3.271,37.007-11.911,51.456-24.917c17.123-15.888,28.823-36.752,33.451-59.648c0.776-4.008,4.281-6.905,8.363-6.912h34.645
		c2.486-0.025,4.859,1.037,6.499,2.906C332.32,226.642,333.063,229.133,332.715,231.595z"/>
	<g>
		<path style="fill:#FB7B76;" d="M58.505,315.648c4.652-0.685,7.873-5.005,7.202-9.66l-2.441-17.067
			c-0.358-3.083-2.361-5.728-5.232-6.908c-2.87-1.18-6.155-0.709-8.578,1.231c-2.423,1.94-3.601,5.042-3.078,8.101l2.441,17.067
			c0.669,4.662,4.988,7.901,9.651,7.236H58.505z"/>
		<path style="fill:#FB7B76;" d="M65.818,366.848c2.241-0.321,4.262-1.519,5.619-3.331c1.357-1.812,1.939-4.088,1.617-6.329
			l-2.441-17.067c-0.358-3.083-2.361-5.728-5.232-6.908c-2.87-1.18-6.155-0.709-8.578,1.231c-2.423,1.94-3.601,5.042-3.078,8.101
			l2.441,17.067C56.835,364.274,61.155,367.513,65.818,366.848z"/>
		<path style="fill:#FB7B76;" d="M77.935,391.322c-0.669-4.666-4.994-7.905-9.66-7.236c-4.666,0.669-7.905,4.994-7.236,9.66
			l10.974,76.8c0.602,4.196,4.192,7.314,8.431,7.322c0.408,0.001,0.816-0.027,1.22-0.085c2.241-0.321,4.262-1.519,5.619-3.331
			c1.357-1.812,1.939-4.088,1.617-6.329L77.935,391.322z"/>
	</g>
	<path style="fill:#F0C419;" d="M93.867,179.2v108.971l-0.256,0.256c-17.177-15.858-28.913-36.732-33.536-59.648
		c-0.776-4.008-4.281-6.905-8.363-6.912h-9.045v-34.133c0-4.713,3.821-8.533,8.533-8.533H93.867z"/>
	<path style="fill:#F3D55B;" d="M145.067,134.571v178.859c-19.166-3.318-37.003-11.986-51.456-25.003l0.256-0.256V143.104
		c0-4.713,3.821-8.533,8.533-8.533H145.067z"/>
	<path style="fill:#F0C419;" d="M196.267,119.467v193.877c-8.432,1.65-17.008,2.451-25.6,2.389
		c-8.587,0.046-17.159-0.726-25.6-2.304V119.467c0-4.713,3.82-8.533,8.533-8.533h34.133
		C192.446,110.933,196.267,114.754,196.267,119.467z"/>
	<path style="fill:#F3D55B;" d="M247.723,288.427c-14.449,13.006-32.292,21.647-51.456,24.917V136.533h42.667
		c4.713,0,8.533,3.821,8.533,8.533v143.104L247.723,288.427z"/>
	<path style="fill:#F0C419;" d="M298.667,179.2v42.667h-9.131c-4.082,0.007-7.587,2.904-8.363,6.912
		c-4.627,22.896-16.328,43.76-33.451,59.648l-0.256-0.256V170.667h42.667C294.846,170.667,298.667,174.487,298.667,179.2z"/>
	<circle style="fill:#E6E7E8;" cx="170.667" cy="409.6" r="51.2"/>
	<g>
		<path style="fill:#804537;" d="M503.467,512h-8.533c-4.713,0-8.533-3.82-8.533-8.533c0-4.713,3.82-8.533,8.533-8.533h8.533
			c4.713,0,8.533,3.821,8.533,8.533C512,508.18,508.18,512,503.467,512z"/>
		<path style="fill:#804537;" d="M460.8,512H8.533C3.821,512,0,508.18,0,503.467c0-4.713,3.821-8.533,8.533-8.533H460.8
			c4.713,0,8.533,3.821,8.533,8.533C469.333,508.18,465.513,512,460.8,512z"/>
	</g>
</g>
<g>
</g>
<g>
</g>
<g>
</g>
<g>
</g>
<g>
</g>
<g>
</g>
<g>
</g>
<g>
</g>
<g>
</g>
<g>
</g>
<g>
</g>
<g>
</g>
<g>
</g>
<g>
</g>
<g>
</g>
</svg>
