<?xml version="1.0" encoding="iso-8859-1"?>
<!-- Generator: Adobe Illustrator 19.0.0, SVG Export Plug-In . SVG Version: 6.00 Build 0)  -->
<svg version="1.1" id="Capa_1" xmlns="http://www.w3.org/2000/svg" xmlns:xlink="http://www.w3.org/1999/xlink" x="0px" y="0px"
	 viewBox="0 0 512 512" style="enable-background:new 0 0 512 512;" xml:space="preserve">
<g>
	<polygon style="fill:#E64C3C;" points="452.267,226.135 432.299,354.135 429.568,371.201 409.6,499.201 102.4,499.201 
		82.432,371.201 79.701,354.135 59.733,226.135 59.733,200.535 452.267,200.535 	"/>
	<polygon style="fill:#C03A2B;" points="432.299,354.135 429.568,371.201 82.432,371.201 79.701,354.135 	"/>
	<circle style="fill:#E6E7E8;" cx="256" cy="362.668" r="93.867"/>
	<g>
		<path style="fill:#804537;" d="M503.467,490.668H486.4c-4.713,0-8.533,3.82-8.533,8.533s3.82,8.533,8.533,8.533h17.067
			c4.713,0,8.533-3.82,8.533-8.533S508.18,490.668,503.467,490.668z"/>
		<path style="fill:#804537;" d="M452.267,490.668H8.533c-4.713,0-8.533,3.82-8.533,8.533s3.821,8.533,8.533,8.533h443.733
			c4.713,0,8.533-3.82,8.533-8.533S456.98,490.668,452.267,490.668z"/>
	</g>
	<g>
		<path style="fill:#FAC176;" d="M153.088,115.201V55.468c12.221-0.005,22.734-8.646,25.104-20.634
			c2.37-11.988-4.063-23.981-15.362-28.636c-11.299-4.655-24.313-0.674-31.075,9.505c-6.762-10.179-19.776-14.16-31.075-9.505
			S82.947,22.845,85.317,34.834s12.884,20.63,25.104,20.634v59.733H153.088z"/>
		<path style="fill:#FAC176;" d="M281.429,115.201V55.468c12.221-0.005,22.734-8.646,25.104-20.634
			c2.37-11.988-4.063-23.981-15.362-28.636s-24.313-0.674-31.075,9.505c-6.762-10.179-19.776-14.16-31.075-9.505
			c-11.299,4.655-17.733,16.647-15.362,28.636c2.37,11.988,12.884,20.63,25.104,20.634v59.733H281.429z"/>
		<path style="fill:#FAC176;" d="M409.771,115.201V55.468c12.221-0.005,22.734-8.646,25.104-20.634
			c2.37-11.988-4.063-23.981-15.362-28.636c-11.299-4.655-24.313-0.674-31.075,9.505c-6.762-10.179-19.776-14.16-31.075-9.505
			C346.063,10.853,339.629,22.845,342,34.834s12.884,20.63,25.104,20.634v59.733H409.771z"/>
	</g>
	<g>
		<path style="fill:#E57E25;" d="M67.925,183.468c1.28-37.171,18.688-68.361,42.496-80.119c13.373-6.952,29.294-6.952,42.667,0
			c23.808,11.759,41.216,42.948,42.496,80.119"/>
		<path style="fill:#E57E25;" d="M196.267,183.468c1.28-37.171,18.688-68.361,42.496-80.119c13.373-6.952,29.294-6.952,42.667,0
			c23.808,11.759,41.216,42.948,42.496,80.119"/>
		<path style="fill:#E57E25;" d="M324.608,183.468c1.28-37.171,18.688-68.361,42.496-80.119c13.373-6.952,29.294-6.952,42.667,0
			c23.808,11.759,41.216,42.948,42.496,80.119"/>
	</g>
	<path style="fill:#D1D4D1;" d="M51.2,174.935h409.6c14.138,0,25.6,11.462,25.6,25.6l0,0c0,14.139-11.462,25.6-25.6,25.6H51.2
		c-14.138,0-25.6-11.462-25.6-25.6l0,0C25.6,186.396,37.062,174.935,51.2,174.935z"/>
</g>
<g>
</g>
<g>
</g>
<g>
</g>
<g>
</g>
<g>
</g>
<g>
</g>
<g>
</g>
<g>
</g>
<g>
</g>
<g>
</g>
<g>
</g>
<g>
</g>
<g>
</g>
<g>
</g>
<g>
</g>
</svg>
